<svg version="1.0" xmlns="http://www.w3.org/2000/svg" width="32.000000pt" height="32.000000pt" viewBox="0 0 32.000000 32.000000" preserveAspectRatio="xMidYMid meet">
<g transform="translate(0.000000,32.000000) scale(0.009195,-0.008696)" fill="#c43337" stroke="none">
<path d="M1575 3660 c-364 -39 -703 -186 -977 -424 -622 -541 -775 -1482 -357 -2193 148 -250 367 -473 614 -623 124 -75 115 -63 -19 26 -118 78 -288 242 -387 373 -136 181 -248 432 -301 674 -19 89 -22 132 -22 332 0 201 3 243 22 335 169 785 822 1330 1593 1330 770 0 1434 -556 1591 -1333 20 -97 23 -141 23 -337 -1 -195 -4 -239 -23 -330 -59 -272 -178 -524 -342 -725 -88 -108 -246 -254 -345 -319 -98 -65 -133 -93 -70 -56 354 207 611 494 763 851 94 220 134 424 134 679 1 242 -38 449 -123 658 -229 561 -714 954 -1310 1062 -126 22 -350 32 -464 20z"/>
<path d="M2186 2802 c226 -120 398 -332 469 -578 130 -448 -63 -916 -468 -1134 -114 -62 -276 -110 -368 -110 l-29 0 0 365 c0 235 -4 365 -10 365 -19 0 -69 -82 -79 -131 -6 -29 -11 -167 -11 -326 l0 -275 -56 7 c-390 48 -735 376 -819 775 -32 155 -26 323 16 489 55 215 195 397 389 505 84 46 69 46 -23 0 -250 -125 -412 -327 -484 -603 -34 -132 -43 -359 -19 -481 74 -364 329 -666 684 -808 75 -30 147 -48 275 -67 l37 -6 0 -327 c0 -180 5 -345 10 -367 8 -38 57 -95 80 -95 6 0 10 142 10 394 l0 394 53 7 c396 49 704 265 867 608 67 139 91 242 97 402 9 243 -47 444 -180 639 -97 143 -286 302 -441 370 -83 37 -83 32 0 -12z"/>
<path d="M1665 2720 c-232 -25 -450 -161 -592 -370 -110 -163 -157 -362 -133 -564 26 -220 109 -385 255 -506 49 -41 163 -110 181 -110 5 0 -16 14 -46 32 -88 50 -182 153 -229 250 -59 122 -75 198 -75 358 0 157 14 220 76 344 108 215 287 361 506 412 91 22 252 14 342 -16 242 -81 421 -269 492 -517 18 -63 22 -104 22 -208 0 -154 -21 -243 -87 -370 -49 -94 -180 -234 -267 -285 -30 -17 -46 -29 -35 -26 31 11 121 67 180 113 125 98 244 292 282 458 24 110 22 283 -6 390 -72 278 -276 494 -549 584 -55 18 -93 24 -217 35 -16 2 -61 0 -100 -4z"/>
</g>
</svg>